# xmcd
#
# Track frame offsets:
#	150
#	12688
#	26265
#	37871
#	50488
#	66753
#	82637
#	99186
#	112008
#	124297
#	135704
#	149302
#	162494
#	178230
#	188696
#	202012
#	216955
#	235930
#	249651
#	264029
#	279256
#	293579
#	312412
#	323895
#	339327
# Disc length: 4775 seconds
# Revision: 1
# Processed by: cddbd v1.5.2PL0 Copyright (c) Steve Scherf et al.
#
# Submitted via: libkcddb 0.31
#
DISCID=6612a519
DTITLE=Valentin Elizalde - 24 Exitos
DYEAR=2006
DGENRE=Banda
TTITLE0=Intro
TTITLE1=Vencedor
TTITLE2=Vete ya
TTITLE3=Te quiero asi
TTITLE4=Como me duele
TTITLE5=Soy asi
TTITLE6=Nada
TTITLE7=La gallina ponedora
TTITLE8=Ebrio de amor
TTITLE9=El errante
TTITLE10=A mis enemigos
TTITLE11=La mas deseada
TTITLE12=Mi amante
TTITLE13=Y se parece a ti
TTITLE14=Hoy no
TTITLE15=La papa
TTITLE16=Rodolfillo
TTITLE17=Vete con el
TTITLE18=Vidita mia
TTITLE19=Satisfaccion
TTITLE20=Para que olvidar
TTITLE21=El corrido del medico
TTITLE22=Vuelve cariñito
TTITLE23=Por que te extraño
TTITLE24=Nadie es eterno
EXTD=Muy chingon
EXTT0=
EXTT1=
EXTT2=
EXTT3=
EXTT4=
EXTT5=
EXTT6=
EXTT7=
EXTT8=
EXTT9=
EXTT10=
EXTT11=
EXTT12=
EXTT13=
EXTT14=
EXTT15=
EXTT16=
EXTT17=
EXTT18=
EXTT19=
EXTT20=
EXTT21=
EXTT22=
EXTT23=
EXTT24=
PLAYORDER=
